<svg width="63" height="50" viewBox="0 0 63 50" fill="none" xmlns="http://www.w3.org/2000/svg">
<path d="M62.5 4.6875V45.3125C62.5 46.5625 62.0312 47.6562 61.0937 48.5937C60.1562 49.5312 59.0625 50 57.8125 50H4.6875C3.4375 50 2.34375 49.5312 1.40625 48.5937C0.46875 47.6562 0 46.5625 0 45.3125V4.6875C0 3.4375 0.46875 2.34375 1.40625 1.40625C2.34375 0.468749 3.4375 0 4.6875 0H57.8125C59.0625 0 60.1562 0.468749 61.0937 1.40625C62.0312 2.34375 62.5 3.4375 62.5 4.6875ZM4.6875 13.2031H57.8125V4.6875H4.6875V13.2031ZM4.6875 23.2812V45.3125H57.8125V23.2812H4.6875ZM4.6875 45.3125V4.6875V45.3125Z" fill="white"/>
</svg>
