<svg width="14" height="13" viewBox="0 0 14 13" fill="none" xmlns="http://www.w3.org/2000/svg">
<path d="M6.66432 0C2.98451 0 0 2.98395 0 6.66432C0 9.60884 1.90933 12.1069 4.55784 12.9882C4.8905 13.0499 4.99824 12.8433 4.99824 12.6678V11.4271C3.14445 11.8303 2.75847 10.6407 2.75847 10.6407C2.45525 9.87042 2.01818 9.66549 2.01818 9.66549C1.41339 9.25175 2.06427 9.26063 2.06427 9.26063C2.73348 9.30728 3.08558 9.94761 3.08558 9.94761C3.67982 10.9661 4.64448 10.6718 5.0249 10.5013C5.08432 10.0709 5.25704 9.77656 5.44808 9.61051C3.96805 9.44112 2.41193 8.86966 2.41193 6.31667C2.41193 5.58859 2.67239 4.99435 3.09835 4.52785C3.02949 4.35958 2.80124 3.68148 3.16333 2.76403C3.16333 2.76403 3.72313 2.5852 4.99658 3.44712C5.52806 3.29939 6.09786 3.22553 6.66432 3.22276C7.23079 3.22553 7.80114 3.29939 8.33373 3.44712C9.60606 2.5852 10.1648 2.76403 10.1648 2.76403C10.5274 3.68204 10.2992 4.36013 10.2303 4.52785C10.6579 4.99435 10.9162 5.58914 10.9162 6.31667C10.9162 8.87632 9.35726 9.44001 7.87334 9.60495C8.11215 9.81155 8.3304 10.217 8.3304 10.839V12.6678C8.3304 12.8449 8.43703 13.0532 8.77525 12.9877C11.4215 12.1052 13.3286 9.60773 13.3286 6.66432C13.3286 2.98395 10.3447 0 6.66432 0Z" fill="white"/>
</svg>
