<svg width="293" height="57" viewBox="0 0 293 57" fill="none" xmlns="http://www.w3.org/2000/svg">
<path fill-rule="evenodd" clip-rule="evenodd" d="M47.1267 51.2002C46.9004 51.2002 46.6741 51.1142 46.5051 50.942L29.4584 33.8953C29.1141 33.551 29.1141 32.9964 29.4584 32.6522C29.7994 32.3111 30.3573 32.3111 30.6983 32.6522L47.7451 49.6989C48.0893 50.0432 48.0893 50.601 47.7451 50.942C47.5729 51.1142 47.3498 51.2002 47.1267 51.2002Z" fill="white"/>
<path fill-rule="evenodd" clip-rule="evenodd" d="M48.3505 56.2205C46.2499 56.2205 44.2736 55.4013 42.7883 53.916L24.1 35.2276C23.9565 35.0842 23.8673 34.8993 23.8481 34.7017L23.3381 30.0958C23.3095 29.8312 23.4019 29.5666 23.59 29.3786L29.3785 23.5901C29.5665 23.402 29.8311 23.3096 30.0956 23.3383L34.7016 23.8451C34.8992 23.8674 35.0841 23.9566 35.2275 24.1001L53.9158 42.7884C55.4012 44.2738 56.2204 46.25 56.2204 48.3506C56.2204 50.4543 55.4012 52.4306 53.9158 53.916C52.4305 55.4013 50.4542 56.2205 48.3505 56.2205ZM25.5598 34.2013L44.0282 52.6728C46.4125 55.0571 50.2916 55.0571 52.6727 52.6728C55.057 50.2918 55.057 46.4126 52.6727 44.0283L34.2011 25.56L30.322 25.1296L25.1295 30.3221L25.5598 34.2013Z" fill="white"/>
<path fill-rule="evenodd" clip-rule="evenodd" d="M50.3204 48.0031C50.0972 48.0031 49.8709 47.917 49.702 47.7449L32.652 30.6981C32.311 30.3571 32.311 29.7993 32.652 29.455C32.9963 29.114 33.5541 29.114 33.8952 29.455L50.9419 46.5018C51.2862 46.846 51.2862 47.4038 50.9419 47.7449C50.7698 47.917 50.5467 48.0031 50.3204 48.0031Z" fill="white"/>
<path fill-rule="evenodd" clip-rule="evenodd" d="M36.3145 27.3067C36.0881 27.3067 35.865 27.2206 35.6929 27.0485C35.3486 26.7074 35.3486 26.1496 35.6929 25.8054L40.2446 21.2536C40.4869 21.0114 40.8439 20.9317 41.1626 21.0464C44.7677 22.3406 48.8445 21.4289 51.5539 18.7196C53.919 16.3576 54.9135 12.947 54.2633 9.71806L48.4078 15.5767C48.0636 15.9177 47.509 15.9177 47.1647 15.5767L40.6463 9.05506C40.4805 8.8925 40.3881 8.66937 40.3881 8.43669C40.3881 8.20081 40.4805 7.97769 40.6463 7.81512L46.5017 1.9565C43.276 1.30625 39.8653 2.30393 37.5002 4.66906C34.794 7.37525 33.8792 11.4552 35.1733 15.0571C35.2881 15.3791 35.2084 15.7361 34.9693 15.9751L26.7265 24.218C26.3822 24.5623 25.8276 24.5623 25.4833 24.218C25.1423 23.8738 25.1423 23.3191 25.4833 22.9749L33.3437 15.1177C32.7604 13.2116 32.6743 11.1907 33.0951 9.23356C33.5668 7.031 34.6601 5.02287 36.2571 3.42594C37.8572 1.829 39.8653 0.732497 42.0647 0.260747C44.2067 -0.198253 46.4252 -0.0484406 48.4843 0.687872C48.7648 0.789872 48.9784 1.02893 49.0453 1.32218C49.1091 1.61862 49.0198 1.92462 48.8063 2.13818L42.5078 8.43669L47.7863 13.712L54.0848 7.4135C54.2983 7.19994 54.6043 7.11069 54.8976 7.17762C55.1908 7.24456 55.4299 7.45494 55.5319 7.73862C56.2714 9.79456 56.418 12.0162 55.959 14.1582C55.4873 16.3576 54.394 18.3657 52.7938 19.9627C51.1969 21.5628 49.1888 22.6561 46.9894 23.1279C45.0323 23.5486 43.0082 23.4594 41.1053 22.8793L36.9328 27.0485C36.7639 27.2206 36.5376 27.3067 36.3145 27.3067Z" fill="white"/>
<path fill-rule="evenodd" clip-rule="evenodd" d="M25.8501 29.2383C25.627 29.2383 25.4006 29.1522 25.2285 28.9801L5.28433 9.0359L2.23389 7.7354C2.05221 7.6589 1.90239 7.52502 1.80677 7.3529L0.111018 4.28971C-0.077044 3.94865 -0.0196694 3.52152 0.257643 3.24421L3.24433 0.257521C3.52164 -0.0197917 3.94877 -0.0771659 4.28983 0.110896L7.35302 1.80665C7.52514 1.90227 7.65902 2.05208 7.73552 2.23058L9.03602 5.28421L28.9802 25.2284C29.3245 25.5726 29.3245 26.1305 28.9802 26.4715L26.4716 28.9801C26.2995 29.1522 26.0764 29.2383 25.8501 29.2383ZM3.19652 6.23727L6.12902 7.48677C6.23102 7.52821 6.32664 7.59196 6.40633 7.67165L25.8501 27.1154L27.1155 25.85L7.67177 6.40621C7.59208 6.32652 7.52833 6.2309 7.48689 6.1289L6.23739 3.1964L4.01889 1.96921L1.96933 4.01877L3.19652 6.23727Z" fill="white"/>
<path fill-rule="evenodd" clip-rule="evenodd" d="M11.6911 56.2205C10.3492 56.2205 9.01362 55.991 7.73862 55.532C7.45494 55.43 7.24456 55.191 7.17762 54.8977C7.11387 54.6045 7.19994 54.2985 7.4135 54.0849L13.712 47.7864L8.43669 42.5079L2.13819 48.8064C1.92462 49.02 1.61862 49.1092 1.32219 49.0423C1.02893 48.9785 0.789873 48.765 0.687873 48.4845C-0.0484402 46.4253 -0.198253 44.2068 0.260747 42.0648C0.735685 39.8623 1.829 37.8573 3.42593 36.2572C5.02287 34.6603 7.031 33.567 9.23356 33.0952C11.1907 32.6745 13.2116 32.7605 15.1177 33.3438L22.9749 25.4835C23.3191 25.1424 23.8738 25.1424 24.218 25.4835C24.5623 25.8277 24.5623 26.3823 24.218 26.7266L15.9751 34.9695C15.7361 35.2085 15.3791 35.2882 15.0571 35.1735C11.4552 33.8793 7.37525 34.7941 4.66906 37.5003C2.30393 39.8655 1.30943 43.2761 1.9565 46.5018L7.81512 40.6464C7.97769 40.4806 8.204 40.3882 8.43669 40.3882C8.66937 40.3882 8.8925 40.4806 9.05825 40.6464L15.5767 47.1648C15.9177 47.5091 15.9177 48.0637 15.5767 48.408L9.71806 54.2634C12.947 54.9136 16.3576 53.916 18.7227 51.554C21.4289 48.8446 22.3406 44.7678 21.0464 41.1628C20.9317 40.844 21.0114 40.4838 21.2536 40.2448L25.8086 35.693C26.1496 35.3488 26.7074 35.3488 27.0485 35.693C27.3927 36.0341 27.3927 36.5919 27.0485 36.933L22.8793 41.1054C23.4626 43.0083 23.5486 45.0324 23.1279 46.9895C22.6561 49.1889 21.5628 51.197 19.9627 52.794C18.3657 54.3941 16.3576 55.4874 14.1582 55.9591C13.3422 56.1345 12.5167 56.2205 11.6911 56.2205Z" fill="white"/>
<path d="M286.518 21.5883C288.634 21.5883 290.489 22.111 292.089 23.1565L290.738 25.9615C289.998 25.5376 289.202 25.1901 288.354 24.916C287.503 24.6355 286.789 24.4953 286.212 24.4953C285.173 24.4953 284.656 24.8363 284.656 25.5153C284.656 25.9679 284.911 26.3281 285.421 26.599C285.938 26.8636 286.562 27.0931 287.295 27.2875C288.025 27.4851 288.755 27.721 289.488 28.0015C290.228 28.2756 290.853 28.7219 291.363 29.3403C291.873 29.9618 292.128 30.7428 292.128 31.6863C292.128 33.0473 291.595 34.1088 290.534 34.8738C289.469 35.6324 288.118 36.0085 286.479 36.0085C285.306 36.0085 284.146 35.8045 282.999 35.3965C281.858 34.9885 280.863 34.4371 280.015 33.739L281.405 30.9723C282.119 31.5938 282.96 32.1038 283.929 32.5023C284.898 32.8943 285.759 33.0888 286.518 33.0888C287.095 33.0888 287.544 32.9868 287.869 32.7828C288.191 32.5724 288.354 32.2664 288.354 31.8648C288.354 31.4759 288.166 31.1476 287.793 30.883C287.426 30.6216 286.967 30.424 286.416 30.2965C285.861 30.169 285.262 30.0001 284.618 29.7865C283.971 29.5666 283.372 29.3275 282.82 29.0725C282.266 28.8175 281.803 28.4159 281.43 27.8613C281.064 27.3003 280.882 26.6309 280.882 25.8468C280.882 24.5558 281.395 23.5231 282.425 22.7485C283.451 21.9771 284.816 21.5883 286.518 21.5883Z" fill="white"/>
<path d="M261.78 21.6265C263.973 21.6265 265.797 22.3118 267.25 23.6792C268.704 25.0403 269.43 26.7456 269.43 28.792C269.43 30.8511 268.697 32.5755 267.237 33.9685C265.774 35.355 263.951 36.0467 261.768 36.0467C259.591 36.0467 257.777 35.3582 256.323 33.9812C254.87 32.5978 254.143 30.867 254.143 28.792C254.143 26.736 254.87 25.0275 256.323 23.6665C257.777 22.3086 259.594 21.6265 261.78 21.6265ZM261.819 24.6355C260.713 24.6355 259.769 25.0371 258.988 25.834C258.204 26.634 257.815 27.6285 257.815 28.8175C257.815 30 258.21 30.9977 259.001 31.8137C259.791 32.6297 260.728 33.0377 261.819 33.0377C262.906 33.0377 263.827 32.6297 264.585 31.8137C265.35 30.9977 265.733 30 265.733 28.8175C265.733 27.6285 265.35 26.634 264.585 25.834C263.827 25.0371 262.906 24.6355 261.819 24.6355Z" fill="white"/>
<path d="M243.779 24.6355H239.52V35.881H235.925V24.6355H231.704V21.7285H243.779V24.6355Z" fill="white"/>
<path d="M217.058 33.28H210.887L209.854 35.881H206.156L212.251 21.7412H215.948L221.915 35.881H218.078L217.058 33.28ZM216.012 30.5515L213.998 25.324L211.932 30.5515H216.012Z" fill="white"/>
<path d="M195.07 35.881H191.896L191.883 26.6883L188.491 34.4658H186.145L182.754 26.6883V35.881H179.541V21.7285H183.481L187.318 30.1435L191.156 21.7285H195.07V35.881Z" fill="white"/>
<path d="M163.681 35.881L161.59 31.903H158.76V35.881H155.164V21.7412H161.488C163.356 21.7412 164.803 22.1715 165.823 23.029C166.85 23.88 167.366 25.0945 167.366 26.6755C167.366 28.8525 166.505 30.3666 164.791 31.2145L167.761 35.881H163.681ZM158.76 29.0725H161.488C162.269 29.0725 162.872 28.878 163.299 28.486C163.732 28.0971 163.949 27.5297 163.949 26.7902C163.949 26.0698 163.732 25.5216 163.299 25.1455C162.872 24.763 162.269 24.5717 161.488 24.5717H158.76V29.0725Z" fill="white"/>
<path d="M135.858 21.6265C138.051 21.6265 139.875 22.3118 141.328 23.6792C142.782 25.0403 143.508 26.7456 143.508 28.792C143.508 30.8511 142.775 32.5755 141.315 33.9685C139.852 35.355 138.029 36.0467 135.846 36.0467C133.669 36.0467 131.855 35.3582 130.401 33.9812C128.948 32.5978 128.221 30.867 128.221 28.792C128.221 26.736 128.948 25.0275 130.401 23.6665C131.855 22.3086 133.672 21.6265 135.858 21.6265ZM135.897 24.6355C134.791 24.6355 133.847 25.0371 133.066 25.834C132.282 26.634 131.893 27.6285 131.893 28.8175C131.893 30 132.288 30.9977 133.079 31.8137C133.869 32.6297 134.807 33.0377 135.897 33.0377C136.984 33.0377 137.905 32.6297 138.663 31.8137C139.428 30.9977 139.811 30 139.811 28.8175C139.811 27.6285 139.428 26.634 138.663 25.834C137.905 25.0371 136.984 24.6355 135.897 24.6355Z" fill="white"/>
<path d="M117.679 24.5717H110.794V27.8485H117.131V30.6662H110.794V35.881H107.199V21.7412H117.679V24.5717Z" fill="white"/>
<path d="M94.6133 35.881H91.4386L84.9361 27.1727V35.881H81.5701V21.7412H84.7448L91.2601 30.4622V21.7412H94.6133V35.881Z" fill="white"/>
<path d="M68.9886 35.881H65.3931V21.7412H68.9886V35.881Z" fill="white"/>
</svg>
