<svg width="293" height="57" viewBox="0 0 293 57" fill="none" xmlns="http://www.w3.org/2000/svg">
<path fill-rule="evenodd" clip-rule="evenodd" d="M47.1267 51.2001C46.9004 51.2001 46.6741 51.114 46.5051 50.9419L29.4584 33.8952C29.1141 33.5509 29.1141 32.9963 29.4584 32.652C29.7994 32.311 30.3573 32.311 30.6983 32.652L47.7451 49.6988C48.0893 50.043 48.0893 50.6009 47.7451 50.9419C47.5729 51.114 47.3498 51.2001 47.1267 51.2001Z" fill="white"/>
<path fill-rule="evenodd" clip-rule="evenodd" d="M48.3505 56.2204C46.2499 56.2204 44.2736 55.4012 42.7883 53.9158L24.1 35.2275C23.9565 35.0841 23.8673 34.8992 23.8481 34.7016L23.3381 30.0956C23.3095 29.8311 23.4019 29.5665 23.59 29.3785L29.3785 23.59C29.5665 23.4019 29.8311 23.3095 30.0956 23.3381L34.7016 23.845C34.8992 23.8673 35.0841 23.9565 35.2275 24.1L53.9158 42.7883C55.4012 44.2736 56.2204 46.2499 56.2204 48.3505C56.2204 50.4542 55.4012 52.4305 53.9158 53.9158C52.4305 55.4012 50.4542 56.2204 48.3505 56.2204ZM25.5598 34.2011L44.0282 52.6727C46.4125 55.057 50.2916 55.057 52.6727 52.6727C55.057 50.2916 55.057 46.4125 52.6727 44.0282L34.2011 25.5598L30.322 25.1295L25.1295 30.322L25.5598 34.2011Z" fill="white"/>
<path fill-rule="evenodd" clip-rule="evenodd" d="M50.3204 48.0031C50.0972 48.0031 49.8709 47.917 49.702 47.7449L32.652 30.6981C32.311 30.3571 32.311 29.7993 32.652 29.455C32.9963 29.114 33.5541 29.114 33.8952 29.455L50.9419 46.5018C51.2862 46.846 51.2862 47.4038 50.9419 47.7449C50.7698 47.917 50.5467 48.0031 50.3204 48.0031Z" fill="white"/>
<path fill-rule="evenodd" clip-rule="evenodd" d="M36.3145 27.3067C36.0881 27.3067 35.865 27.2206 35.6929 27.0485C35.3486 26.7074 35.3486 26.1496 35.6929 25.8054L40.2446 21.2536C40.4869 21.0114 40.8439 20.9317 41.1626 21.0464C44.7677 22.3406 48.8445 21.4289 51.5539 18.7196C53.919 16.3576 54.9135 12.947 54.2633 9.71806L48.4078 15.5767C48.0636 15.9177 47.509 15.9177 47.1647 15.5767L40.6463 9.05506C40.4805 8.8925 40.3881 8.66937 40.3881 8.43669C40.3881 8.20081 40.4805 7.97769 40.6463 7.81512L46.5017 1.9565C43.276 1.30625 39.8653 2.30393 37.5002 4.66906C34.794 7.37525 33.8792 11.4552 35.1733 15.0571C35.2881 15.3791 35.2084 15.7361 34.9693 15.9751L26.7265 24.218C26.3822 24.5623 25.8276 24.5623 25.4833 24.218C25.1423 23.8738 25.1423 23.3191 25.4833 22.9749L33.3437 15.1177C32.7604 13.2116 32.6743 11.1907 33.0951 9.23356C33.5668 7.031 34.6601 5.02287 36.2571 3.42594C37.8572 1.829 39.8653 0.732497 42.0647 0.260747C44.2067 -0.198253 46.4252 -0.0484406 48.4843 0.687872C48.7648 0.789872 48.9784 1.02893 49.0453 1.32218C49.1091 1.61862 49.0198 1.92462 48.8063 2.13818L42.5078 8.43669L47.7863 13.712L54.0848 7.4135C54.2983 7.19994 54.6043 7.11069 54.8976 7.17762C55.1908 7.24456 55.4299 7.45494 55.5319 7.73862C56.2714 9.79456 56.418 12.0162 55.959 14.1582C55.4873 16.3576 54.394 18.3657 52.7938 19.9627C51.1969 21.5628 49.1888 22.6561 46.9894 23.1279C45.0323 23.5486 43.0082 23.4594 41.1053 22.8793L36.9328 27.0485C36.7639 27.2206 36.5376 27.3067 36.3145 27.3067Z" fill="white"/>
<path fill-rule="evenodd" clip-rule="evenodd" d="M25.8496 29.2384C25.6265 29.2384 25.4002 29.1523 25.228 28.9802L5.28384 9.03602L2.23341 7.73552C2.05172 7.65902 1.90191 7.52514 1.80628 7.35302L0.11053 4.28983C-0.0775323 3.94877 -0.0201577 3.52164 0.257155 3.24433L3.24384 0.257643C3.52115 -0.0196696 3.94828 -0.0770438 4.28934 0.111018L7.35253 1.80677C7.52465 1.90239 7.65853 2.05221 7.73503 2.23071L9.03553 5.28433L28.9797 25.2285C29.324 25.5728 29.324 26.1306 28.9797 26.4716L26.4712 28.9802C26.299 29.1523 26.0759 29.2384 25.8496 29.2384ZM3.19603 6.23739L6.12853 7.48689C6.23053 7.52833 6.32616 7.59208 6.40584 7.67177L25.8496 27.1155L27.115 25.8501L7.67128 6.40633C7.59159 6.32664 7.52784 6.23102 7.48641 6.12902L6.23691 3.19652L4.01841 1.96933L1.96884 4.01889L3.19603 6.23739Z" fill="white"/>
<path fill-rule="evenodd" clip-rule="evenodd" d="M11.6911 56.2204C10.3492 56.2204 9.01362 55.9909 7.73862 55.5319C7.45494 55.4299 7.24456 55.1908 7.17762 54.8976C7.11387 54.6043 7.19994 54.2983 7.4135 54.0848L13.712 47.7863L8.43669 42.5078L2.13819 48.8063C1.92462 49.0198 1.61862 49.1091 1.32219 49.0422C1.02893 48.9784 0.789873 48.7648 0.687873 48.4843C-0.0484402 46.4252 -0.198253 44.2067 0.260747 42.0647C0.735685 39.8621 1.829 37.8572 3.42593 36.2571C5.02287 34.6601 7.031 33.5668 9.23356 33.0951C11.1907 32.6743 13.2116 32.7604 15.1177 33.3437L22.9749 25.4833C23.3191 25.1423 23.8738 25.1423 24.218 25.4833C24.5623 25.8276 24.5623 26.3822 24.218 26.7265L15.9751 34.9693C15.7361 35.2084 15.3791 35.2881 15.0571 35.1733C11.4552 33.8792 7.37525 34.794 4.66906 37.5002C2.30393 39.8653 1.30943 43.276 1.9565 46.5017L7.81512 40.6463C7.97769 40.4805 8.204 40.3881 8.43669 40.3881C8.66937 40.3881 8.8925 40.4805 9.05825 40.6463L15.5767 47.1647C15.9178 47.509 15.9178 48.0636 15.5767 48.4078L9.71806 54.2633C12.947 54.9135 16.3576 53.9158 18.7228 51.5539C21.4289 48.8445 22.3406 44.7677 21.0464 41.1626C20.9317 40.8439 21.0114 40.4837 21.2536 40.2446L25.8086 35.6929C26.1496 35.3486 26.7074 35.3486 27.0485 35.6929C27.3928 36.034 27.3928 36.5918 27.0485 36.9328L22.8793 41.1053C23.4626 43.0082 23.5486 45.0323 23.1279 46.9894C22.6561 49.1888 21.5628 51.1969 19.9627 52.7938C18.3658 54.394 16.3576 55.4873 14.1583 55.959C13.3423 56.1343 12.5167 56.2204 11.6911 56.2204Z" fill="white"/>
<path d="M286.518 21.5884C288.635 21.5884 290.49 22.1111 292.09 23.1566L290.738 25.9616C289.999 25.5377 289.202 25.1903 288.354 24.9161C287.503 24.6356 286.789 24.4954 286.212 24.4954C285.173 24.4954 284.657 24.8364 284.657 25.5154C284.657 25.968 284.912 26.3282 285.422 26.5991C285.938 26.8637 286.563 27.0932 287.296 27.2876C288.026 27.4853 288.756 27.7211 289.489 28.0016C290.228 28.2758 290.853 28.722 291.363 29.3404C291.873 29.9619 292.128 30.7429 292.128 31.6864C292.128 33.0474 291.596 34.1089 290.534 34.8739C289.47 35.6325 288.118 36.0086 286.48 36.0086C285.307 36.0086 284.147 35.8046 282.999 35.3966C281.858 34.9886 280.864 34.4372 280.016 33.7391L281.405 30.9724C282.119 31.5939 282.961 32.1039 283.93 32.5024C284.899 32.8944 285.76 33.0889 286.518 33.0889C287.095 33.0889 287.545 32.9869 287.87 32.7829C288.192 32.5725 288.354 32.2665 288.354 31.8649C288.354 31.476 288.166 31.1477 287.793 30.8831C287.427 30.6218 286.968 30.4241 286.416 30.2966C285.862 30.1691 285.262 30.0002 284.618 29.7866C283.971 29.5667 283.372 29.3276 282.821 29.0726C282.266 28.8176 281.804 28.416 281.431 27.8614C281.064 27.3004 280.883 26.631 280.883 25.8469C280.883 24.5559 281.396 23.5232 282.425 22.7486C283.452 21.9773 284.816 21.5884 286.518 21.5884Z" fill="white"/>
<path d="M261.78 21.6265C263.973 21.6265 265.796 22.3118 267.25 23.6792C268.703 25.0403 269.43 26.7456 269.43 28.792C269.43 30.8511 268.697 32.5755 267.237 33.9685C265.774 35.355 263.951 36.0467 261.767 36.0467C259.59 36.0467 257.776 35.3582 256.323 33.9812C254.869 32.5978 254.143 30.867 254.143 28.792C254.143 26.736 254.869 25.0275 256.323 23.6665C257.776 22.3086 259.593 21.6265 261.78 21.6265ZM261.818 24.6355C260.712 24.6355 259.769 25.0371 258.988 25.834C258.203 26.634 257.815 27.6285 257.815 28.8175C257.815 30 258.21 30.9977 259 31.8137C259.791 32.6297 260.728 33.0377 261.818 33.0377C262.905 33.0377 263.826 32.6297 264.585 31.8137C265.35 30.9977 265.732 30 265.732 28.8175C265.732 27.6285 265.35 26.634 264.585 25.834C263.826 25.0371 262.905 24.6355 261.818 24.6355Z" fill="white"/>
<path d="M243.778 24.6355H239.52V35.881H235.924V24.6355H231.704V21.7285H243.778V24.6355Z" fill="white"/>
<path d="M217.058 33.28H210.887L209.854 35.881H206.156L212.251 21.7412H215.948L221.915 35.881H218.078L217.058 33.28ZM216.012 30.5515L213.998 25.324L211.932 30.5515H216.012Z" fill="white"/>
<path d="M195.071 35.881H191.896L191.883 26.6883L188.492 34.4658H186.146L182.754 26.6883V35.881H179.541V21.7285H183.481L187.319 30.1435L191.157 21.7285H195.071V35.881Z" fill="white"/>
<path d="M163.681 35.881L161.59 31.903H158.76V35.881H155.164V21.7412H161.488C163.356 21.7412 164.803 22.1715 165.823 23.029C166.85 23.88 167.366 25.0945 167.366 26.6755C167.366 28.8525 166.505 30.3666 164.791 31.2145L167.761 35.881H163.681ZM158.76 29.0725H161.488C162.269 29.0725 162.872 28.878 163.299 28.486C163.732 28.0971 163.949 27.5297 163.949 26.7902C163.949 26.0698 163.732 25.5216 163.299 25.1455C162.872 24.763 162.269 24.5717 161.488 24.5717H158.76V29.0725Z" fill="white"/>
<path d="M135.858 21.6265C138.051 21.6265 139.874 22.3118 141.328 23.6792C142.781 25.0403 143.508 26.7456 143.508 28.792C143.508 30.8511 142.775 32.5755 141.315 33.9685C139.852 35.355 138.029 36.0467 135.845 36.0467C133.668 36.0467 131.854 35.3582 130.401 33.9812C128.947 32.5978 128.221 30.867 128.221 28.792C128.221 26.736 128.947 25.0275 130.401 23.6665C131.854 22.3086 133.671 21.6265 135.858 21.6265ZM135.896 24.6355C134.79 24.6355 133.847 25.0371 133.066 25.834C132.282 26.634 131.893 27.6285 131.893 28.8175C131.893 30 132.288 30.9977 133.078 31.8137C133.869 32.6297 134.806 33.0377 135.896 33.0377C136.983 33.0377 137.904 32.6297 138.663 31.8137C139.428 30.9977 139.81 30 139.81 28.8175C139.81 27.6285 139.428 26.634 138.663 25.834C137.904 25.0371 136.983 24.6355 135.896 24.6355Z" fill="white"/>
<path d="M117.68 24.5717H110.795V27.8485H117.131V30.6662H110.795V35.881H107.199V21.7412H117.68V24.5717Z" fill="white"/>
<path d="M94.6136 35.881H91.4388L84.9363 27.1727V35.881H81.5703V21.7412H84.7451L91.2603 30.4622V21.7412H94.6136V35.881Z" fill="white"/>
<path d="M68.9881 35.881H65.3926V21.7412H68.9881V35.881Z" fill="white"/>
</svg>
