<svg width="69" height="50" viewBox="0 0 69 50" fill="none" xmlns="http://www.w3.org/2000/svg">
<path d="M39.0625 29.6875C36.4583 29.6875 34.2448 28.776 32.4219 26.9531C30.599 25.1302 29.6875 22.9167 29.6875 20.3125C29.6875 17.7083 30.599 15.4948 32.4219 13.6719C34.2448 11.849 36.4583 10.9375 39.0625 10.9375C41.6667 10.9375 43.8802 11.849 45.7031 13.6719C47.526 15.4948 48.4375 17.7083 48.4375 20.3125C48.4375 22.9167 47.526 25.1302 45.7031 26.9531C43.8802 28.776 41.6667 29.6875 39.0625 29.6875ZM14.0625 40.625C12.7604 40.625 11.6536 40.1693 10.7422 39.2578C9.83073 38.3464 9.375 37.2396 9.375 35.9375V4.6875C9.375 3.38542 9.83073 2.27865 10.7422 1.36719C11.6536 0.455729 12.7604 0 14.0625 0H64.0625C65.3646 0 66.4714 0.455729 67.3828 1.36719C68.2943 2.27865 68.75 3.38542 68.75 4.6875V35.9375C68.75 37.2396 68.2943 38.3464 67.3828 39.2578C66.4714 40.1693 65.3646 40.625 64.0625 40.625H14.0625ZM21.875 35.9375H56.25C56.25 33.75 57.0052 31.901 58.5156 30.3906C60.026 28.8802 61.875 28.125 64.0625 28.125V12.5C61.875 12.5 60.026 11.7448 58.5156 10.2344C57.0052 8.72396 56.25 6.875 56.25 4.6875H21.875C21.875 6.875 21.1198 8.72396 19.6094 10.2344C18.099 11.7448 16.25 12.5 14.0625 12.5V28.125C16.25 28.125 18.099 28.8802 19.6094 30.3906C21.1198 31.901 21.875 33.75 21.875 35.9375ZM59.375 50H4.6875C3.38542 50 2.27865 49.5443 1.36719 48.6328C0.455729 47.7214 0 46.6146 0 45.3125V9.375H4.6875V45.3125H59.375V50Z" fill="white"/>
</svg>
