<svg width="143" height="51" viewBox="0 0 143 51" fill="none" xmlns="http://www.w3.org/2000/svg">
<g clip-path="url(#clip0_27_955)">
<path d="M59.0178 47.6211V18.3702C59.0178 15.786 60.0411 13.3077 61.8625 11.4803C63.6839 9.65304 66.1542 8.62646 68.7301 8.62646L77.3377 8.63851C79.9068 8.6437 82.3689 9.67133 84.1836 11.4959C85.9983 13.3204 87.0173 15.7927 87.0169 18.3702V24.595C87.0169 27.1794 85.9937 29.6579 84.1723 31.4854C82.351 33.313 79.8806 34.3399 77.3046 34.3403H65.1384" stroke="white" stroke-width="6.26" stroke-linecap="round" stroke-linejoin="round"/>
<path d="M89.4229 8.625H93.1571C94.2143 8.625 95.2283 9.04635 95.9758 9.79637C96.7234 10.5464 97.1434 11.5636 97.1434 12.6243V34.4728" stroke="white" stroke-width="6.26" stroke-linecap="round" stroke-linejoin="round"/>
<path d="M96.3418 5.23993L94.6488 3.53993C94.5489 3.43981 94.4697 3.32092 94.4156 3.19006C94.3616 3.05919 94.3337 2.91892 94.3337 2.77727C94.3337 2.63561 94.3616 2.49534 94.4156 2.36448C94.4697 2.23362 94.5489 2.11473 94.6488 2.0146L96.3418 0.316108C96.5439 0.113542 96.8179 -0.000244141 97.1035 -0.000244141C97.3892 -0.000244141 97.6631 0.113542 97.8652 0.316108L99.5567 2.0146C99.6566 2.11473 99.7358 2.23362 99.7899 2.36448C99.844 2.49534 99.8718 2.63561 99.8718 2.77727C99.8718 2.91892 99.844 3.05919 99.7899 3.19006C99.7358 3.32092 99.6566 3.43981 99.5567 3.53993L97.8577 5.23993C97.7578 5.34019 97.6392 5.41971 97.5086 5.47397C97.378 5.52823 97.2381 5.55616 97.0968 5.55616C96.9554 5.55616 96.8155 5.52823 96.6849 5.47397C96.5544 5.41971 96.4357 5.34019 96.3358 5.23993" fill="white"/>
<path d="M104.312 8.60547H108.014C109.919 8.60468 111.746 9.36296 113.093 10.7135L121.755 19.4033C122.021 19.6711 122.338 19.8836 122.687 20.0286C123.035 20.1735 123.409 20.2481 123.786 20.2481C124.164 20.2481 124.537 20.1735 124.886 20.0286C125.234 19.8836 125.551 19.6711 125.818 19.4033L134.448 10.7467C135.115 10.0778 135.906 9.54741 136.777 9.1857C137.649 8.82398 138.582 8.63807 139.525 8.6386H142.536" stroke="white" stroke-width="6.26" stroke-linecap="round" stroke-linejoin="round"/>
<path d="M104.312 34.2816H108.014C109.919 34.2822 111.746 33.5239 113.093 32.1735L121.755 23.4838C122.294 22.9436 123.024 22.6401 123.786 22.6401C124.548 22.6401 125.279 22.9436 125.818 23.4838L134.448 32.1419C135.795 33.4922 137.621 34.2505 139.525 34.2499H142.536" stroke="white" stroke-width="6.26" stroke-linecap="round" stroke-linejoin="round"/>
<path d="M36.9414 39.8317C36.0278 39.835 35.1227 39.6567 34.2782 39.307C33.4337 38.9573 32.6667 38.4432 32.0215 37.7944L24.9148 30.6601C24.6634 30.419 24.329 30.2844 23.9812 30.2844C23.6334 30.2844 23.299 30.419 23.0477 30.6601L15.9169 37.814C15.2721 38.4638 14.5053 38.9789 13.6608 39.3296C12.8163 39.6803 11.911 39.8597 10.997 39.8573H9.60571L18.611 48.8919C19.9617 50.244 21.7918 51.0033 23.6998 51.0033C25.6078 51.0033 27.4379 50.244 28.7885 48.8919L37.8119 39.8377L36.9414 39.8317Z" fill="white"/>
<path d="M10.9985 14.6193C11.9125 14.6168 12.8179 14.7962 13.6624 15.1469C14.5068 15.4976 15.2736 16.0128 15.9184 16.6626L23.0492 23.818C23.297 24.0659 23.6327 24.2051 23.9827 24.2051C24.3327 24.2051 24.6684 24.0659 24.9163 23.818L32.0215 16.6897C32.6657 16.0391 33.4324 15.5233 34.277 15.1722C35.1216 14.8212 36.0272 14.642 36.9414 14.6449H37.7969L28.7735 5.59228C28.1054 4.92169 27.312 4.38973 26.4389 4.02679C25.5658 3.66385 24.6299 3.47705 23.6848 3.47705C22.7397 3.47705 21.8038 3.66385 20.9307 4.02679C20.0575 4.38973 19.2642 4.92169 18.596 5.59228L9.60571 14.6193H10.9985Z" fill="white"/>
<path d="M45.2607 22.1346L39.808 16.6642C39.685 16.7147 39.5536 16.7412 39.4208 16.7425H36.9413C35.6511 16.7458 34.4143 17.2598 33.4998 18.173L26.3946 25.2967C25.7547 25.9375 24.8875 26.2974 23.9834 26.2974C23.0793 26.2974 22.2121 25.9375 21.5722 25.2967L14.44 18.1459C13.5258 17.2322 12.289 16.7176 10.9985 16.7139H7.9547C7.82926 16.7111 7.70529 16.6861 7.58849 16.6401L2.10124 22.1346C0.753497 23.4896 -0.00341797 25.3257 -0.00341797 27.2399C-0.00341797 29.1541 0.753497 30.9902 2.10124 32.3452L7.57648 37.8382C7.69304 37.7914 7.81716 37.7664 7.9427 37.7644H10.9985C12.2889 37.7606 13.5257 37.246 14.44 36.3324L21.5707 29.1786C22.86 27.8866 25.1068 27.8866 26.3946 29.1786L33.4998 36.3053C34.4143 37.2185 35.6511 37.7326 36.9413 37.7358H39.4208C39.5537 37.7367 39.6852 37.7633 39.808 37.8141L45.2607 32.3437C45.9292 31.6733 46.4594 30.8774 46.8212 30.0015C47.1829 29.1255 47.3691 28.1866 47.3691 27.2384C47.3691 26.2902 47.1829 25.3513 46.8212 24.4754C46.4594 23.5994 45.9292 22.8035 45.2607 22.1331" fill="white"/>
<path d="M66.4204 45.135C65.9696 45.1548 65.5223 45.223 65.0861 45.3383V47.1211C65.4198 47.2385 65.7711 47.2976 66.1247 47.2958C67.0162 47.2958 67.438 46.9946 67.438 46.2071C67.438 45.4663 67.0928 45.135 66.4204 45.135ZM64.7859 48.4477V44.9197H65.0305L65.0561 45.0703C65.5107 44.9491 65.9763 44.8739 66.4459 44.8459C66.7713 44.823 67.0942 44.917 67.3569 45.1109C67.6571 45.3609 67.7591 45.7644 67.7591 46.2041C67.7591 46.6438 67.6091 47.0985 67.1888 47.3379C66.8681 47.4985 66.513 47.5776 66.1547 47.5683C65.7924 47.566 65.4324 47.5107 65.0861 47.4042V48.4417L64.7859 48.4477Z" fill="white"/>
<path d="M69.9954 45.1244C69.1054 45.1244 68.7077 45.4045 68.7077 46.192C68.7077 46.9524 69.0994 47.2957 69.9954 47.2957C70.8915 47.2957 71.2787 47.0187 71.2787 46.2327C71.2787 45.4723 70.8869 45.1244 69.9954 45.1244ZM71.1421 47.2957C70.8419 47.5096 70.4487 47.5713 69.9954 47.5713C69.5422 47.5713 69.1354 47.505 68.8457 47.2957C68.5201 47.0654 68.3865 46.6934 68.3865 46.2131C68.3865 45.7328 68.5201 45.3593 68.8457 45.1244C69.1354 44.9151 69.5331 44.8489 69.9954 44.8489C70.4577 44.8489 70.8464 44.9151 71.1421 45.1244C71.4723 45.3593 71.5999 45.7418 71.5999 46.2071C71.5999 46.6723 71.4678 47.0654 71.1421 47.2957Z" fill="white"/>
<path d="M75.3594 47.499L74.3659 45.3594H74.3463L73.3678 47.499H73.0931L72.0425 44.9197H72.3727L73.2537 47.085H73.2747L74.2323 44.9197H74.5069L75.4885 47.085H75.5095L76.3695 44.9197H76.6952L75.6356 47.499H75.3594Z" fill="white"/>
<path d="M78.6091 45.1185C77.7836 45.1185 77.5044 45.4874 77.4534 46.022H79.7647C79.7392 45.4347 79.4391 45.1185 78.6091 45.1185ZM78.5986 47.5714C78.1048 47.5714 77.7836 47.4991 77.5284 47.2853C77.2282 47.0248 77.1277 46.6469 77.1277 46.2132C77.1277 45.7795 77.2643 45.3594 77.6065 45.1095C77.9057 44.9206 78.256 44.8296 78.6091 44.849C78.969 44.8272 79.3271 44.9143 79.6372 45.0989C80.0079 45.3489 80.0799 45.7886 80.0799 46.2885H77.4459C77.4564 46.82 77.629 47.2898 78.6271 47.2898C79.0733 47.278 79.5177 47.2276 79.9554 47.1392V47.4103C79.5105 47.5021 79.0585 47.555 78.6046 47.5684" fill="white"/>
<path d="M80.9429 47.4991V44.9197H81.186L81.2115 45.0703C81.7564 44.9318 82.0115 44.8459 82.4903 44.8459H82.5263V45.132H82.4543C82.052 45.132 81.8074 45.1878 81.243 45.3353V47.4961L80.9429 47.4991Z" fill="white"/>
<path d="M84.2702 45.1185C83.4462 45.1185 83.1655 45.4874 83.1145 46.022H85.4259C85.4004 45.4347 85.1002 45.1185 84.2702 45.1185ZM84.2597 47.5714C83.7659 47.5714 83.4462 47.4991 83.1911 47.2853C82.8909 47.0248 82.7888 46.6469 82.7888 46.2132C82.7888 45.7795 82.9269 45.3594 83.2676 45.1095C83.567 44.921 83.9172 44.83 84.2702 44.849C84.6301 44.8272 84.9883 44.9143 85.2983 45.0989C85.6705 45.3489 85.7486 45.7886 85.7486 46.2885H83.104C83.1145 46.82 83.2871 47.2898 84.2852 47.2898C84.732 47.2781 85.1769 47.2277 85.615 47.1392V47.4103C85.1701 47.502 84.7182 47.5549 84.2642 47.5684" fill="white"/>
<path d="M89.0327 45.2976C88.6989 45.1807 88.3476 45.1222 87.9941 45.1245C87.1026 45.1245 86.6808 45.4256 86.6808 46.2131C86.6808 46.9585 87.0275 47.2852 87.6984 47.2852C88.1488 47.2643 88.5959 47.1972 89.0327 47.085V45.2976ZM89.0897 47.499L89.0627 47.3485C88.6083 47.471 88.1426 47.5467 87.6729 47.5743C87.3471 47.599 87.0234 47.5043 86.7619 47.3078C86.4617 47.0578 86.3596 46.6543 86.3596 46.2161C86.3596 45.7554 86.5097 45.3217 86.93 45.0868C87.2511 44.9225 87.6082 44.8418 87.9686 44.8519C88.329 44.8569 88.6871 44.9116 89.0327 45.0145V43.8325H89.3329V47.499H89.0897Z" fill="white"/>
<path d="M93.738 45.135C93.2873 45.1548 92.84 45.223 92.4037 45.3383V47.1166C92.7367 47.2373 93.0883 47.2979 93.4423 47.2958C94.3338 47.2958 94.7556 46.9946 94.7556 46.2071C94.7556 45.4663 94.4104 45.135 93.738 45.135ZM94.5064 47.3409C94.1862 47.5013 93.8316 47.5805 93.4738 47.5713C93.0822 47.5689 92.6935 47.5033 92.3226 47.3771L92.3076 47.499H92.1035V43.8325H92.4037V45.0627C92.8492 44.9484 93.3045 44.8768 93.7635 44.8489C94.0889 44.826 94.4118 44.9199 94.6745 45.1139C94.9747 45.3639 95.0768 45.7674 95.0768 46.2071C95.0768 46.6468 94.9267 47.1015 94.5064 47.3409Z" fill="white"/>
<path d="M95.476 48.4854V48.2054C95.6261 48.2204 95.7612 48.231 95.8572 48.231C96.2294 48.231 96.4576 48.1225 96.6617 47.6994L96.7592 47.4946L95.4084 44.9153H95.7567L96.9078 47.1423H96.9273L98.0215 44.9153H98.3637L96.9168 47.8124C96.6527 48.3379 96.3675 48.511 95.8422 48.511C95.7182 48.5104 95.5944 48.5018 95.4715 48.4854" fill="white"/>
<path d="M102.511 46.028H101.514V46.9314H102.511C103.198 46.9314 103.458 46.8546 103.458 46.4797C103.458 46.0762 103.1 46.028 102.505 46.028M102.324 44.5704H101.511V45.4889H102.33C103.007 45.4889 103.277 45.4076 103.277 45.0251C103.277 44.6156 102.935 44.5734 102.324 44.5734M103.873 47.2657C103.506 47.5006 103.063 47.5096 102.254 47.5096H100.73V44.0012H102.218C102.916 44.0012 103.344 44.0103 103.699 44.2256C103.817 44.2963 103.914 44.3988 103.977 44.5215C104.04 44.6441 104.067 44.7821 104.056 44.9197C104.056 45.2871 103.906 45.5326 103.506 45.6967V45.7163C103.956 45.8187 104.244 46.049 104.244 46.5444C104.255 46.6859 104.226 46.8277 104.161 46.9535C104.095 47.0792 103.996 47.1838 103.873 47.2552" fill="white"/>
<path d="M107.289 46.4165C106.989 46.3909 106.689 46.3759 106.363 46.3759C105.839 46.3759 105.655 46.4828 105.655 46.7237C105.655 46.9646 105.805 47.07 106.21 47.07C106.574 47.058 106.936 47.0076 107.289 46.9195V46.4165ZM107.439 47.4992L107.42 47.3486C106.965 47.4773 106.496 47.5531 106.024 47.5745C105.751 47.5929 105.479 47.5267 105.245 47.3847C105.145 47.3 105.066 47.1916 105.018 47.0692C104.969 46.9468 104.951 46.8142 104.966 46.6833C104.981 46.5523 105.028 46.4271 105.103 46.3189C105.178 46.2106 105.278 46.1226 105.395 46.0627C105.665 45.9347 106.027 45.9241 106.359 45.9241C106.627 45.9241 106.989 45.9392 107.289 45.9603V45.9136C107.289 45.5101 107.025 45.3776 106.302 45.3776C106.023 45.3776 105.68 45.3926 105.355 45.4227V44.9017C105.716 44.8716 106.125 44.8521 106.461 44.8521C106.911 44.8521 107.372 44.8867 107.662 45.0915C107.951 45.2962 108.013 45.5929 108.013 45.9753V47.5022L107.439 47.4992Z" fill="white"/>
<path d="M111.366 47.4992V46.0762C111.366 45.6064 111.127 45.4378 110.699 45.4378C110.344 45.4536 109.992 45.5081 109.649 45.6004V47.5007H108.931V44.9198H109.517L109.542 45.0839C109.99 44.9518 110.451 44.8729 110.917 44.849C111.233 44.8236 111.548 44.9182 111.798 45.114C112.001 45.2977 112.077 45.5537 112.077 45.9211V47.4992H111.366Z" fill="white"/>
<path d="M114.106 47.5713C113.775 47.5713 113.413 47.5246 113.149 47.3002C112.834 47.0443 112.742 46.6422 112.742 46.2071C112.742 45.799 112.874 45.3533 113.266 45.1034C113.587 44.8941 113.983 44.8489 114.396 44.8489C114.696 44.8489 114.982 44.8684 115.297 44.8986V45.4512C115.037 45.4256 114.726 45.406 114.477 45.406C113.794 45.406 113.473 45.6198 113.473 46.2131C113.473 46.7687 113.713 47.0096 114.273 47.0096C114.636 46.9977 114.997 46.9534 115.352 46.8771V47.4072C114.941 47.5031 114.522 47.5581 114.1 47.5713" fill="white"/>
<path d="M117.479 45.3894C116.796 45.3894 116.496 45.6048 116.496 46.192C116.496 46.7793 116.796 47.0292 117.479 47.0292C118.162 47.0292 118.451 46.8199 118.451 46.2327C118.451 45.6454 118.162 45.3894 117.479 45.3894ZM118.711 47.3002C118.396 47.5141 117.983 47.5713 117.479 47.5713C116.975 47.5713 116.553 47.5095 116.242 47.3002C115.885 47.0654 115.757 46.6769 115.757 46.2131C115.757 45.7493 115.885 45.3533 116.242 45.1184C116.553 44.9091 116.964 44.8489 117.479 44.8489C117.994 44.8489 118.396 44.9091 118.711 45.1184C119.067 45.3533 119.19 45.7478 119.19 46.2071C119.19 46.6663 119.062 47.0654 118.711 47.3002Z" fill="white"/>
<path d="M123.334 47.5714C122.902 47.5714 122.433 47.4991 122.082 47.2085C121.665 46.8607 121.537 46.3246 121.537 45.7479C121.537 45.2314 121.701 44.6186 122.244 44.2617C122.668 43.9862 123.191 43.929 123.721 43.929C124.108 43.929 124.506 43.9546 124.938 43.9907V44.6186C124.568 44.5885 124.108 44.5629 123.753 44.5629C122.759 44.5629 122.337 44.9408 122.337 45.7479C122.337 46.555 122.729 46.9375 123.461 46.9375C123.985 46.9193 124.505 46.8492 125.015 46.7282V47.3515C124.463 47.4795 123.9 47.5531 123.334 47.5714Z" fill="white"/>
<path d="M127.125 45.3083C126.525 45.3083 126.3 45.5236 126.253 45.9106H127.985C127.964 45.492 127.719 45.3083 127.125 45.3083ZM127.017 47.5669C126.595 47.5669 126.213 47.5157 125.927 47.2808C125.642 47.0459 125.515 46.6424 125.515 46.2027C125.515 45.8097 125.642 45.37 125.999 45.114C126.315 44.8897 126.717 44.8445 127.125 44.8445C127.491 44.8445 127.924 44.8851 128.239 45.105C128.651 45.3956 128.689 45.8458 128.689 46.3758H126.249C126.264 46.7703 126.472 47.0248 127.196 47.0248C127.655 47.0148 128.113 46.9705 128.566 46.8923V47.3982C128.055 47.4956 127.537 47.552 127.017 47.5669Z" fill="white"/>
<path d="M131.886 47.4992V46.0762C131.886 45.6064 131.647 45.4378 131.219 45.4378C130.864 45.4536 130.512 45.5081 130.169 45.6004V47.5007H129.451V44.9198H130.037L130.062 45.0839C130.51 44.9518 130.971 44.8729 131.437 44.849C131.753 44.8236 132.068 44.9182 132.318 45.114C132.521 45.2977 132.597 45.5537 132.597 45.9211V47.4992H131.886Z" fill="white"/>
<path d="M134.643 47.5713C134.296 47.5713 133.981 47.4734 133.809 47.2024C133.667 46.9681 133.601 46.6957 133.619 46.4224V45.4557H133.1V44.9197H133.619L133.696 44.1382H134.329V44.9197H135.342V45.4557H134.329V46.2839C134.32 46.4506 134.344 46.6176 134.4 46.7748C134.476 46.9479 134.645 47.0142 134.87 47.0142C135.042 47.011 135.214 46.9939 135.383 46.963V47.4795C135.139 47.5325 134.89 47.5633 134.64 47.5713" fill="white"/>
<path d="M136.046 47.4991V44.9198H136.632L136.657 45.0839C137.068 44.944 137.497 44.8649 137.93 44.849C137.96 44.8472 137.991 44.8472 138.022 44.849V45.4739C137.941 45.4739 137.843 45.4739 137.772 45.4739C137.432 45.4753 137.093 45.5198 136.764 45.6064V47.5112L136.046 47.4991Z" fill="white"/>
<path d="M140.633 46.4165C140.333 46.3909 140.033 46.3759 139.706 46.3759C139.182 46.3759 138.999 46.4828 138.999 46.7237C138.999 46.9646 139.149 47.07 139.552 47.07C139.917 47.058 140.279 47.0076 140.633 46.9195V46.4165ZM140.783 47.4992L140.762 47.3486C140.307 47.4773 139.839 47.5531 139.366 47.5745C139.093 47.5929 138.821 47.5267 138.587 47.3847C138.493 47.312 138.417 47.2172 138.368 47.1086C138.318 46.9999 138.295 46.8807 138.302 46.7613C138.295 46.6145 138.333 46.469 138.411 46.3442C138.488 46.2194 138.602 46.1212 138.736 46.0627C139.006 45.9347 139.366 45.9241 139.698 45.9241C139.968 45.9241 140.33 45.9392 140.63 45.9603V45.9136C140.63 45.5101 140.364 45.3776 139.642 45.3776C139.362 45.3776 139.021 45.3926 138.695 45.4227V44.9017C139.057 44.8716 139.464 44.8521 139.8 44.8521C140.25 44.8521 140.711 44.8867 141.001 45.0915C141.29 45.2962 141.352 45.5929 141.352 45.9753V47.5022L140.783 47.4992Z" fill="white"/>
<path d="M142.272 43.8325H142.991V47.499H142.272V43.8325Z" fill="white"/>
</g>
<defs>
<clipPath id="clip0_27_955">
<rect width="143" height="51" fill="white"/>
</clipPath>
</defs>
</svg>
