<svg width="28" height="28" viewBox="0 0 28 28" fill="none" xmlns="http://www.w3.org/2000/svg">
<path fill-rule="evenodd" clip-rule="evenodd" d="M0.698242 27.3044L2.57777 20.4718C1.41824 18.4724 0.808474 16.2035 0.809172 13.8796C0.812661 6.6094 6.75405 0.69455 14.0559 0.69455C17.5994 0.695939 20.9245 2.0694 23.4256 4.56136C25.9261 7.05402 27.3033 10.3664 27.3019 13.8901C27.2991 21.1603 21.3563 27.0758 14.0559 27.0758C14.0552 27.0758 14.0559 27.0758 14.0559 27.0758H14.0503C11.8338 27.0752 9.65497 26.5215 7.72032 25.4704L0.698242 27.3044Z" fill="white"/>
<path fill-rule="evenodd" clip-rule="evenodd" d="M0.698141 27.6519C0.606048 27.6519 0.516746 27.6158 0.450467 27.5491C0.363258 27.4609 0.329072 27.3324 0.361863 27.2136L2.20302 20.5192C1.06163 18.5004 0.459537 16.2078 0.460932 13.8805C0.463723 6.41781 6.56208 0.347351 14.0558 0.347351C17.6907 0.348741 21.1058 1.75833 23.6725 4.31629C26.2393 6.87494 27.652 10.2749 27.6506 13.8902C27.6479 21.3522 21.5488 27.4234 14.0558 27.4234C11.8309 27.4227 9.62975 26.8759 7.67627 25.8415L0.786745 27.6401C0.757443 27.6485 0.728141 27.6519 0.698141 27.6519Z" fill="white"/>
<path fill-rule="evenodd" clip-rule="evenodd" d="M14.0556 0.69472C17.5991 0.69611 20.9242 2.06957 23.4254 4.56153C25.9258 7.05419 27.303 10.3666 27.3016 13.8902C27.2988 21.1605 21.3561 27.076 14.0556 27.076H14.05C11.8335 27.0753 9.65469 26.5216 7.72004 25.4705L0.69796 27.3046L2.57749 20.472C1.41796 18.4726 0.808192 16.2037 0.80889 13.8798C0.812378 6.60957 6.75376 0.69472 14.0556 0.69472ZM14.0556 0C6.37004 0 0.114705 6.22608 0.111217 13.8798C0.110519 16.2189 0.703542 18.524 1.82819 20.5644L0.0247056 27.1219C-0.0408756 27.3616 0.0261009 27.6172 0.201915 27.7937C0.334472 27.9271 0.513774 28 0.69796 28C0.757262 28 0.816565 27.9924 0.875169 27.9771L7.63353 26.2125C9.60655 27.2323 11.8182 27.7707 14.05 27.7714C21.7412 27.7714 27.9965 21.5447 28 13.8909C28.0014 10.1818 26.5523 6.69432 23.92 4.07106C21.2863 1.4471 17.7833 0.00138944 14.0556 0Z" fill="#CFD8DC"/>
<path fill-rule="evenodd" clip-rule="evenodd" d="M21.843 6.13571C19.764 4.06406 17.0005 2.92263 14.0591 2.92194C7.98654 2.92194 3.04771 7.83777 3.04492 13.8805C3.04422 15.9514 3.62608 17.9675 4.72841 19.7133L4.99073 20.1281L3.87794 24.172L8.04515 23.0841L8.4477 23.3217C10.1375 24.3207 12.0756 24.8487 14.0514 24.8494H14.0556C20.124 24.8494 25.0628 19.9329 25.0649 13.8895C25.0656 10.9612 23.9221 8.20737 21.843 6.13571Z" fill="#40C351"/>
<path fill-rule="evenodd" clip-rule="evenodd" d="M10.7444 8.36788C10.4967 7.81906 10.2358 7.80794 9.99931 7.79821C9.80605 7.78988 9.58559 7.79057 9.36512 7.79057C9.14466 7.79057 8.78605 7.87324 8.48257 8.20324C8.17908 8.53323 7.32373 9.33007 7.32373 10.9515C7.32373 12.573 8.50978 14.1403 8.67512 14.3598C8.84047 14.5794 10.9649 18.0134 14.3291 19.3347C17.1246 20.4324 17.6939 20.2143 18.3009 20.1594C18.9079 20.1045 20.2593 19.3625 20.5349 18.5928C20.8104 17.823 20.8104 17.1637 20.7281 17.0262C20.6451 16.8886 20.4246 16.8066 20.0939 16.6413C19.7632 16.476 18.1356 15.6791 17.8321 15.5694C17.5286 15.4596 17.3081 15.4047 17.087 15.7347C16.8665 16.064 16.2323 16.8066 16.0391 17.0262C15.8458 17.2464 15.6526 17.2742 15.3219 17.1089C14.9912 16.9435 13.9251 16.5961 12.6602 15.4735C11.6765 14.6002 11.0123 13.5213 10.8191 13.1913C10.6258 12.862 10.7981 12.6835 10.9642 12.5188C11.1128 12.3709 11.2949 12.134 11.4609 11.9415C11.6263 11.7491 11.6814 11.6115 11.7916 11.392C11.9019 11.1718 11.8467 10.9793 11.7637 10.8147C11.6821 10.6493 11.0388 9.01953 10.7444 8.36788Z" fill="white"/>
</svg>
